# xmcd
#
# Track frame offsets:
#	150
#	12477
#	18242
#	31133
#	40941
#	52119
#	63887
#	73976
#	83276
#	100491
#	109085
#	125046
#	142041
#	152827
#	162746
#	175882
#	195885
#	213570
#	229832
#	245697
#
# Disc length: 3565 seconds
#
# Revision: 0
# Processed by: cddbd v1.4PL0 Copyright (c) Steve Scherf et al.
# Submitted via: OrangeCD 4.1
#
DISCID=1c0deb14
DTITLE=Nitty Gritty Dirt Band - WILL THE CIRCLE BE UNBROKEN
DYEAR=1900
DGENRE=
TTITLE0=Lonesome Fiddle Blues
TTITLE1=Cannonball Rag
TTITLE2=Avalanche
TTITLE3=Flint Hill Special
TTITLE4=Togary Mountain
TTITLE5=Earl's Breakdown
TTITLE6=Orange Bloosom Special
TTITLE7=Washball Canonball
TTITLE8=Lost Highway
TTITLE9=Way Downtown
TTITLE10=Down Yonder 
TTITLE11=Pins and Needles (In My Heart)
TTITLE12=Honky Tonk Blues
TTITLE13=Sailin' On To Hawaii
TTITLE14=I'm Thinking Tonight Of My Blue Eyes
TTITLE15=I Am A Pilgram
TTITLE16=Wildwood Flowers
TTITLE17=Soldier's Joy
TTITLE18=Will The Circle Be Unbroken
TTITLE19=Both Sides Now
EXTD=
EXTT0=
EXTT1=
EXTT2=
EXTT3=
EXTT4=
EXTT5=
EXTT6=
EXTT7=
EXTT8=
EXTT9=
EXTT10=
EXTT11=
EXTT12=
EXTT13=
EXTT14=
EXTT15=
EXTT16=
EXTT17=
EXTT18=
EXTT19=
PLAYORDER=
